<svg width="109" height="110" xmlns="http://www.w3.org/2000/svg" xmlns:xlink="http://www.w3.org/1999/xlink" xml:space="preserve" overflow="hidden"><defs><clipPath id="clip0"><path d="M866.705-181.211 935.346-141.581 895.716-72.9395 827.075-112.57Z" fill-rule="evenodd" clip-rule="evenodd"/></clipPath><clipPath id="clip1"><path d="M866.705-181.211 935.346-141.581 895.716-72.9395 827.075-112.57Z" fill-rule="evenodd" clip-rule="evenodd"/></clipPath><clipPath id="clip2"><path d="M866.705-181.211 935.346-141.581 895.716-72.9395 827.075-112.57Z" fill-rule="evenodd" clip-rule="evenodd"/></clipPath></defs><g transform="translate(-827 182)"><g clip-path="url(#clip0)"><g clip-path="url(#clip1)"><g clip-path="url(#clip2)"><path d="M888.859-106.116 910.614-107.059 907.105-111.054C906.503-111.738 906.57-112.782 907.254-113.384 907.286-113.412 907.319-113.439 907.352-113.464L915.879-119.872 905.609-123.18C904.74-123.459 904.263-124.39 904.543-125.258 904.559-125.307 904.578-125.356 904.598-125.405L906.672-130.221 895.591-126.627C894.941-126.416 894.242-126.773 894.032-127.424 893.899-127.833 893.988-128.282 894.267-128.609L907.219-143.776 899.625-143.283C898.715-143.225 897.93-143.915 897.871-144.825 897.864-144.921 897.867-145.018 897.877-145.114L899.374-158.536 888.501-150.528C887.766-149.987 886.733-150.144 886.192-150.879 886.135-150.957 886.084-151.039 886.041-151.126L882.667-157.951 876.007-139.152C875.779-138.507 875.071-138.17 874.426-138.398 874.021-138.542 873.719-138.886 873.629-139.307L871.201-150.7 868.067-146.496C867.522-145.765 866.487-145.614 865.756-146.159 865.714-146.19 865.674-146.223 865.635-146.258L857.634-153.499 856.348-142.911C856.238-142.006 855.415-141.361 854.509-141.472 854.467-141.477 854.426-141.483 854.385-141.492L849.17-142.533 859.235-123.22C859.602-122.515 859.415-121.65 858.791-121.159L852.367-116.104 868.827-111.058C869.263-110.925 869.508-110.463 869.375-110.027 869.353-109.954 869.32-109.885 869.279-109.821L860.902-96.8531 865.192-94.3762 872.235-108.118C872.444-108.523 872.942-108.681 873.347-108.472 873.414-108.437 873.476-108.394 873.531-108.343L886.13-96.6105 887.296-104.702C887.409-105.487 888.066-106.082 888.859-106.116Z" fill="#EE675C"/></g></g></g></g></svg>