<svg width="236" height="149" xmlns="http://www.w3.org/2000/svg" xmlns:xlink="http://www.w3.org/1999/xlink" xml:space="preserve" overflow="hidden"><defs><clipPath id="clip0"><rect x="2009" y="-715" width="236" height="149"/></clipPath></defs><g clip-path="url(#clip0)" transform="translate(-2009 715)"><path d="M2077.76-598.234C2073.41-598.234 2069.34-597.645 2065.55-596.466 2061.75-595.288 2058.45-593.752 2055.64-591.861 2052.84-589.97 2050.62-587.859 2049-585.529 2047.38-583.2 2046.57-580.911 2046.57-578.663 2046.57-575.977 2047.45-573.812 2049.21-572.167 2050.97-570.523 2053.36-569.701 2056.39-569.701 2059.19-569.701 2062.05-570.44 2064.97-571.921 2067.88-573.401 2070.74-575.374 2073.55-577.841 2076.36-580.308 2079.07-583.172 2081.68-586.434 2084.29-589.696 2086.67-593.136 2088.82-596.754 2087.11-597.193 2085.34-597.549 2083.49-597.823 2081.65-598.097 2079.74-598.234 2077.76-598.234ZM2220.08-602.757C2218.37-602.757 2216.59-602.195 2214.72-601.071 2212.84-599.947 2211.11-598.453 2209.52-596.589 2207.92-594.726 2206.6-592.601 2205.56-590.217 2204.51-587.832 2203.99-585.379 2203.99-582.857 2203.99-580.171 2204.65-578.157 2205.97-576.813 2207.29-575.47 2208.86-574.799 2210.67-574.799 2212.43-574.799 2214.11-575.251 2215.71-576.155 2217.3-577.06 2218.79-578.28 2220.16-579.815 2220.11-579.924 2220.08-580.089 2220.08-580.308 2220.08-580.966 2220.3-581.514 2220.74-581.953 2221.18-582.391 2221.7-582.638 2222.31-582.693 2223.57-584.612 2224.56-586.681 2225.28-588.901 2225.99-591.121 2226.35-593.328 2226.35-595.52 2226.35-597.987 2225.79-599.81 2224.66-600.989 2223.53-602.167 2222-602.757 2220.08-602.757ZM2154.75-602.757C2153.49-602.757 2152.11-602.414 2150.62-601.729 2149.14-601.044 2147.69-600.071 2146.29-598.81 2144.89-597.549 2143.58-596.069 2142.37-594.369 2141.16-592.67 2140.23-590.779 2139.57-588.696 2142.26-589.024 2144.75-589.545 2147.03-590.258 2149.32-590.97 2151.28-591.834 2152.94-592.848 2154.59-593.862 2155.88-594.972 2156.81-596.178 2157.75-597.384 2158.22-598.591 2158.22-599.797 2158.22-600.728 2157.9-601.455 2157.27-601.975 2156.63-602.496 2155.8-602.757 2154.75-602.757ZM2182.78-614.516C2183.66-614.516 2184.33-614.296 2184.8-613.858 2185.27-613.419 2185.5-612.844 2185.5-612.131 2185.5-610.651 2184.65-608.376 2182.94-605.306 2183.61-604.812 2184.39-604.347 2185.3-603.908 2186.2-603.469 2187.06-602.99 2187.85-602.469 2188.65-601.948 2189.34-601.345 2189.92-600.66 2190.5-599.975 2190.78-599.139 2190.78-598.152 2190.78-596.782 2190.4-595.329 2189.63-593.794 2188.86-592.259 2188.02-590.683 2187.11-589.065 2186.2-587.448 2185.37-585.79 2184.6-584.091 2183.82-582.391 2183.44-580.692 2183.44-578.992 2183.44-577.567 2183.77-576.484 2184.43-575.744 2185.09-575.004 2185.97-574.634 2187.07-574.634 2188.17-574.634 2189.33-575.018 2190.54-575.785 2191.75-576.553 2192.97-577.595 2194.21-578.91 2195.45-580.226 2196.7-581.72 2197.96-583.392L2199.97-586.281 2201.18-591.861C2202.45-594.63 2204.08-597.069 2206.09-599.18 2208.1-601.29 2210.34-602.976 2212.82-604.237 2215.29-605.498 2217.74-606.128 2220.16-606.128 2223.46-606.128 2226.06-605.196 2227.96-603.332 2229.86-601.469 2230.81-598.81 2230.81-595.356 2230.81-592.67 2230.3-589.997 2229.28-587.339 2228.26-584.68 2226.9-582.199 2225.2-579.897 2226.19-579.02 2227.48-578.581 2229.07-578.581 2233.25-578.581 2237.55-581.925 2241.95-588.613 2242.06-588.778 2242.19-588.942 2242.36-589.107 2242.47-589.216 2242.61-589.312 2242.77-589.395 2242.94-589.477 2243.1-589.518 2243.27-589.518 2244.42-589.408 2245-588.833 2245-587.791 2245-587.517 2244.89-587.16 2244.67-586.722 2242.19-582.994 2239.68-580.171 2237.12-578.252 2234.56-576.333 2231.69-575.374 2228.5-575.374 2227.4-575.374 2226.34-575.525 2225.32-575.827 2224.3-576.128 2223.38-576.526 2222.55-577.019 2220.79-575.265 2218.88-573.88 2216.82-572.866 2214.76-571.852 2212.65-571.345 2210.51-571.345 2207.21-571.345 2204.51-572.332 2202.42-574.305 2201.37-575.292 2200.59-576.519 2200.07-577.985L2199.71-580.318 2195.98-576.073C2194.5-574.621 2192.96-573.469 2191.36-572.62 2189.77-571.77 2188.12-571.345 2186.41-571.345 2184.16-571.345 2182.37-572.058 2181.05-573.483 2179.73-574.908 2179.07-576.937 2179.07-579.568 2179.07-581.213 2179.44-582.885 2180.18-584.584 2180.92-586.283 2181.75-587.942 2182.66-589.559 2183.56-591.176 2184.39-592.697 2185.13-594.123 2185.87-595.548 2186.25-596.836 2186.25-597.987 2186.25-598.536 2186.07-599.015 2185.71-599.427 2185.35-599.838 2184.91-600.208 2184.39-600.537 2183.87-600.865 2183.32-601.167 2182.74-601.441 2182.16-601.715 2181.62-602.017 2181.13-602.346 2179.81-599.824 2178.41-597.302 2176.92-594.781 2175.44-592.259 2173.81-589.6 2172.05-586.804 2171.83-586.475 2171.61-586.201 2171.39-585.982 2171.17-585.763 2170.87-585.653 2170.48-585.653L2170.03-585.814 2165.85-580.596C2164.01-578.705 2162.03-577.074 2159.91-575.703 2157.79-574.333 2155.59-573.264 2153.31-572.496 2151.02-571.729 2148.7-571.345 2146.33-571.345 2142.32-571.345 2139.24-572.304 2137.09-574.223 2134.95-576.142 2133.87-578.91 2133.87-582.528 2133.87-585.927 2134.55-589.065 2135.89-591.943 2137.24-594.822 2138.95-597.316 2141.01-599.427 2143.07-601.537 2145.34-603.182 2147.82-604.36 2150.29-605.539 2152.63-606.128 2154.83-606.128 2157.31-606.128 2159.23-605.539 2160.61-604.36 2161.98-603.182 2162.67-601.496 2162.67-599.303 2162.67-597.659 2162.05-596.055 2160.82-594.493 2159.58-592.93 2157.89-591.519 2155.74-590.258 2153.59-588.997 2151.06-587.928 2148.15-587.051 2145.23-586.174 2142.12-585.571 2138.82-585.242 2138.66-584.365 2138.58-583.433 2138.58-582.446 2138.58-579.924 2139.32-578.033 2140.8-576.772 2142.29-575.511 2144.27-574.881 2146.75-574.881 2148.45-574.881 2150.27-575.21 2152.19-575.868 2154.12-576.526 2156.03-577.444 2157.93-578.622 2159.83-579.801 2161.65-581.24 2163.42-582.94 2165.18-584.639 2166.72-586.53 2168.04-588.613 2168.15-588.778 2168.28-588.942 2168.45-589.107 2168.56-589.216 2168.7-589.312 2168.86-589.395 2169.03-589.477 2169.19-589.518 2169.36-589.518L2169.78-589.355 2173.74-595.891C2175.09-598.33 2176.51-601.139 2177.99-604.319 2177.94-604.484 2177.91-604.812 2177.91-605.306 2177.91-606.676 2178.06-607.924 2178.36-609.047 2178.67-610.171 2179.07-611.144 2179.56-611.966 2180.06-612.789 2180.59-613.419 2181.17-613.858 2181.75-614.296 2182.28-614.516 2182.78-614.516ZM2090.71-636.306C2088.4-636.306 2086.04-635.854 2083.62-634.95 2081.2-634.045 2079-632.867 2077.02-631.414 2075.04-629.961 2073.4-628.275 2072.11-626.357 2070.81-624.438 2070.17-622.437 2070.17-620.354 2070.17-618.764 2070.59-617.531 2071.45-616.654 2072.3-615.776 2073.36-615.338 2074.62-615.338 2076.33-615.338 2078.06-616.009 2079.82-617.353 2081.58-618.695 2083.21-620.395 2084.69-622.451 2086.18-624.507 2087.46-626.768 2088.53-629.234 2089.6-631.701 2090.33-634.059 2090.71-636.306ZM2021.46-659.248C2019.1-659.248 2017.17-658.686 2015.68-657.563 2014.2-656.439 2013.46-654.945 2013.46-653.081 2013.46-651.601 2013.95-650.436 2014.94-649.586 2015.93-648.737 2017.22-648.312 2018.82-648.312 2020.8-648.312 2022.67-649.12 2024.43-650.738 2026.19-652.355 2027.87-654.534 2029.46-657.275 2028.03-657.878 2026.65-658.358 2025.3-658.714 2023.95-659.07 2022.67-659.248 2021.46-659.248ZM2134.27-677.503C2133-677.503 2131.63-677.161 2130.14-676.476 2128.65-675.79 2127.21-674.817 2125.81-673.556 2124.4-672.295 2123.1-670.815 2121.89-669.116 2120.68-667.417 2119.74-665.525 2119.08-663.442 2121.78-663.771 2124.27-664.292 2126.55-665.004 2128.83-665.717 2130.8-666.581 2132.45-667.595 2134.1-668.609 2135.39-669.719 2136.33-670.925 2137.26-672.131 2137.73-673.337 2137.73-674.543 2137.73-675.475 2137.42-676.201 2136.78-676.722 2136.15-677.243 2135.31-677.503 2134.27-677.503ZM2099.88-677.503C2098.62-677.503 2097.24-677.161 2095.76-676.476 2094.27-675.79 2092.83-674.817 2091.42-673.556 2090.02-672.295 2088.71-670.815 2087.5-669.116 2086.29-667.417 2085.36-665.525 2084.7-663.442 2087.39-663.771 2089.88-664.292 2092.17-665.004 2094.45-665.717 2096.42-666.581 2098.07-667.595 2099.72-668.609 2101.01-669.719 2101.95-670.925 2102.88-672.131 2103.35-673.337 2103.35-674.543 2103.35-675.475 2103.03-676.201 2102.4-676.722 2101.77-677.243 2100.93-677.503 2099.88-677.503ZM2070.06-706.613C2068.85-705.626 2067.7-704.543 2066.6-703.365 2065.5-702.186 2064.52-700.925 2063.67-699.582 2062.82-698.239 2062.14-696.813 2061.65-695.306 2061.15-693.798 2060.91-692.25 2060.91-690.66 2060.91-688.412 2061.4-686.741 2062.39-685.644 2063.38-684.548 2064.67-684 2066.27-684 2067.37-684 2068.43-684.356 2069.45-685.068 2070.46-685.781 2071.36-686.713 2072.13-687.864 2072.9-689.015 2073.52-690.331 2073.98-691.811 2074.45-693.291 2074.69-694.826 2074.69-696.416 2074.69-698.993 2074.27-701.131 2073.45-702.83 2072.62-704.529 2071.5-705.79 2070.06-706.613ZM2080.96-715C2082.22-715 2082.86-714.534 2082.86-713.602 2082.86-713.109 2082.7-712.739 2082.4-712.492 2082.1-712.245 2081.48-712.067 2080.55-711.958 2079.61-711.848 2078.52-711.546 2077.29-711.053 2076.05-710.559 2074.77-709.874 2073.45-708.997 2075.26-707.736 2076.65-706.023 2077.62-703.858 2078.58-701.693 2079.06-699.212 2079.06-696.416 2079.06-694.113 2078.72-691.976 2078.03-690.002 2077.34-688.029 2076.41-686.316 2075.22-684.863 2074.04-683.41 2072.68-682.286 2071.14-681.491 2069.6-680.697 2067.95-680.299 2066.19-680.299 2063.27-680.299 2060.95-681.245 2059.21-683.136 2057.48-685.027 2056.61-687.535 2056.61-690.66 2056.61-692.305 2056.86-693.908 2057.36-695.47 2057.85-697.033 2058.53-698.54 2059.38-699.993 2060.23-701.446 2061.22-702.83 2062.35-704.146 2063.48-705.461 2064.7-706.695 2066.02-707.846L2065.03-707.846C2062.17-707.846 2059.63-706.914 2057.4-705.05 2055.17-703.186 2053.15-700.747 2051.33-697.732 2049.52-694.717 2047.88-691.304 2046.42-687.494 2044.97-683.684 2043.58-679.86 2042.26-676.023 2041.27-673.063 2040.21-670.144 2039.08-667.266 2037.95-664.388 2036.73-661.661 2035.41-659.084 2036.45-658.59 2037.5-658.056 2038.54-657.48 2039.59-656.905 2040.69-656.316 2041.84-655.712 2045.8-653.52 2049.35-651.765 2052.49-650.45 2055.62-649.134 2058.59-648.476 2061.4-648.476 2062.94-648.476 2064.45-648.874 2065.94-649.669 2067.42-650.464 2068.9-651.546 2070.35-652.917 2071.81-654.287 2073.23-655.877 2074.6-657.686 2075.98-659.495 2077.3-661.386 2078.56-663.36 2078.95-663.963 2079.42-664.264 2079.97-664.264L2080.46-664.054 2081.03-666.69C2082.37-669.568 2084.08-672.063 2086.14-674.173 2088.21-676.283 2090.48-677.928 2092.95-679.107 2095.43-680.286 2097.76-680.875 2099.96-680.875 2102.44-680.875 2104.37-680.286 2105.74-679.107 2107.12-677.928 2107.8-676.242 2107.8-674.05 2107.8-672.405 2107.19-670.801 2105.95-669.239 2104.71-667.677 2103.02-666.265 2100.87-665.004 2098.73-663.744 2096.2-662.675 2093.28-661.798 2090.36-660.92 2087.26-660.317 2083.96-659.988 2083.79-659.111 2083.71-658.179 2083.71-657.193 2083.71-654.671 2084.45-652.78 2085.94-651.519 2087.42-650.258 2089.4-649.628 2091.88-649.628 2093.58-649.628 2095.4-649.956 2097.32-650.614 2099.25-651.272 2101.16-652.19 2103.06-653.369 2104.96-654.548 2106.79-655.986 2108.55-657.686 2110.31-659.385 2111.85-661.277 2113.17-663.36 2113.28-663.524 2113.42-663.689 2113.58-663.853 2113.69-663.963 2113.83-664.059 2113.99-664.141 2114.16-664.223 2114.32-664.264 2114.49-664.264L2114.86-664.122 2115.41-666.69C2116.76-669.568 2118.46-672.063 2120.53-674.173 2122.59-676.283 2124.86-677.928 2127.33-679.107 2129.81-680.286 2132.15-680.875 2134.35-680.875 2136.82-680.875 2138.75-680.286 2140.12-679.107 2141.5-677.928 2142.19-676.242 2142.19-674.05 2142.19-672.405 2141.57-670.801 2140.33-669.239 2139.09-667.677 2137.4-666.265 2135.26-665.004 2133.11-663.744 2130.58-662.675 2127.66-661.798 2124.75-660.92 2121.64-660.317 2118.34-659.988 2118.17-659.111 2118.09-658.179 2118.09-657.193 2118.09-654.671 2118.83-652.78 2120.32-651.519 2121.81-650.258 2123.79-649.628 2126.26-649.628 2127.97-649.628 2129.78-649.956 2131.71-650.614 2133.63-651.272 2135.54-652.19 2137.44-653.369 2139.34-654.548 2141.17-655.986 2142.93-657.686 2144.69-659.385 2146.23-661.277 2147.55-663.36 2147.66-663.524 2147.8-663.689 2147.96-663.853 2148.07-663.963 2148.21-664.059 2148.38-664.141 2148.54-664.223 2148.71-664.264 2148.87-664.264 2149.42-664.264 2149.85-664.1 2150.15-663.771 2150.45-663.442 2150.6-663.031 2150.6-662.537 2150.6-662.263 2150.49-661.907 2150.27-661.468 2148.84-659.276 2147.21-657.234 2145.36-655.343 2143.52-653.451 2141.54-651.82 2139.42-650.45 2137.31-649.079 2135.1-648.01 2132.82-647.243 2130.54-646.475 2128.21-646.092 2125.85-646.092 2121.83-646.092 2118.75-647.051 2116.61-648.97 2114.46-650.888 2113.39-653.657 2113.39-657.275L2113.7-658.737 2110.98-655.343C2109.14-653.451 2107.16-651.82 2105.04-650.45 2102.92-649.079 2100.72-648.01 2098.44-647.243L2092.87-646.324 2094.02-645.434C2094.79-644.064 2095.2-642.008 2095.25-639.267 2097.89-638.499 2099.92-637.005 2101.32-634.785 2102.72-632.565 2103.42-629.646 2103.42-626.028 2103.42-622.026 2102.68-617.64 2101.19-612.871 2099.71-608.102 2097.65-603.305 2095.01-598.481 2099.63-596.507 2103.55-593.958 2106.76-590.833 2109.98-587.709 2112.25-584.419 2113.57-580.966 2117.42-592.752 2121.22-602.455 2124.96-610.075 2128.7-617.695 2132.32-623.725 2135.81-628.166 2139.31-632.606 2142.65-635.704 2145.84-637.457 2149.03-639.212 2152.03-640.089 2154.83-640.089 2156.65-640.089 2158.06-639.733 2159.08-639.02 2160.1-638.307 2160.61-637.622 2160.61-636.964 2160.61-636.526 2160.47-636.156 2160.2-635.854 2159.92-635.552 2159.56-635.402 2159.12-635.402 2158.79-635.402 2158.52-635.457 2158.3-635.566 2158.08-635.676 2157.83-635.786 2157.56-635.895 2157.28-636.005 2156.94-636.115 2156.52-636.224 2156.11-636.334 2155.52-636.389 2154.75-636.389 2152.44-636.389 2149.76-635.278 2146.7-633.058 2143.65-630.838 2140.38-627.165 2136.88-622.04 2133.39-616.914 2129.77-610.144 2126.03-601.729 2122.29-593.314 2118.55-582.94 2114.81-570.605 2114.59-569.892 2114.36-569.358 2114.11-569.002 2113.86-568.645 2113.41-568.467 2112.75-568.467 2112.14-568.467 2111.65-568.618 2111.26-568.919 2110.88-569.221 2110.68-569.673 2110.68-570.276 2110.68-570.44 2110.74-570.783 2110.85-571.304 2110.96-571.825 2111.07-572.387 2111.18-572.99 2111.13-575.018 2110.68-577.087 2109.86-579.198 2109.03-581.309 2107.85-583.364 2106.31-585.365 2104.77-587.366 2102.9-589.216 2100.7-590.916 2098.5-592.615 2096-594.068 2093.19-595.274 2090.88-591.327 2088.28-587.585 2085.39-584.05 2082.5-580.514 2079.46-577.416 2076.27-574.758 2073.08-572.099 2069.81-569.975 2066.45-568.385 2063.1-566.795 2059.77-566 2056.47-566 2052.01-566 2048.51-567.165 2045.95-569.495 2043.39-571.825 2042.11-574.881 2042.11-578.663 2042.11-581.514 2043.02-584.337 2044.83-587.133 2046.65-589.929 2049.14-592.423 2052.3-594.616 2055.46-596.809 2059.22-598.577 2063.57-599.92 2067.91-601.263 2072.64-601.934 2077.76-601.934 2082.27-601.934 2086.56-601.304 2090.63-600.043 2093.16-604.703 2095.17-609.294 2096.66-613.817 2098.14-618.339 2098.88-622.41 2098.88-626.028 2098.88-628.495 2098.53-630.482 2097.81-631.989 2097.1-633.497 2096.11-634.607 2094.84-635.32 2094.35-632.688 2093.41-629.975 2092.04-627.179 2090.66-624.383 2089.04-621.848 2087.17-619.573 2085.3-617.298 2083.26-615.434 2081.06-613.981 2078.86-612.528 2076.69-611.802 2074.54-611.802 2072.07-611.802 2069.99-612.556 2068.31-614.063 2066.63-615.571 2065.79-617.777 2065.79-620.683 2065.79-623.15 2066.58-625.534 2068.15-627.837 2069.71-630.139 2071.72-632.181 2074.17-633.963 2076.62-635.745 2079.33-637.17 2082.3-638.239 2085.27-639.308 2088.16-639.842 2090.96-639.842 2090.91-641.158 2090.78-642.145 2090.59-642.802 2090.4-643.46 2090.16-643.981 2089.89-644.365 2089.56-644.858 2089.39-645.297 2089.39-645.68L2089.81-646.606 2082.22-648.97C2080.08-650.888 2079-653.657 2079-657.275L2079.28-658.564 2076.91-655.137C2075.37-653.108 2073.76-651.313 2072.09-649.751 2070.41-648.188 2068.63-646.941 2066.76-646.009 2064.89-645.078 2062.91-644.611 2060.82-644.611 2057.41-644.611 2054.03-645.283 2050.67-646.626 2047.32-647.969 2043.6-649.792 2039.53-652.094 2038.49-652.697 2037.46-653.273 2036.44-653.821 2035.42-654.369 2034.42-654.917 2033.43-655.466 2031.5-652.231 2029.33-649.628 2026.91-647.654 2024.49-645.68 2021.76-644.694 2018.74-644.694 2015.99-644.694 2013.68-645.447 2011.81-646.955 2009.94-648.462 2009-650.505 2009-653.081 2009-654.561 2009.32-655.904 2009.95-657.11 2010.58-658.316 2011.46-659.358 2012.59-660.235 2013.72-661.112 2015.04-661.798 2016.55-662.291 2018.06-662.784 2019.73-663.031 2021.54-663.031 2024.57-663.031 2027.84-662.318 2031.36-660.893 2032.57-663.305 2033.7-665.909 2034.75-668.705 2035.79-671.5 2036.78-674.378 2037.72-677.339 2039.04-681.396 2040.47-685.466 2042.01-689.55 2043.55-693.634 2045.38-697.293 2047.5-700.527 2049.61-703.762 2052.08-706.393 2054.88-708.422 2057.69-710.45 2061.02-711.464 2064.87-711.464 2066.74-711.464 2068.41-711.217 2069.9-710.724 2071.94-712.095 2073.93-713.15 2075.88-713.89 2077.84-714.63 2079.53-715 2080.96-715Z" fill="#A281C9" fill-rule="evenodd"/></g></svg>